<?xml version="1.0" encoding="UTF-8"?>
<!DOCTYPE svg PUBLIC "-//W3C//DTD SVG 1.1//EN" "http://www.w3.org/Graphics/SVG/1.1/DTD/svg11.dtd">
<!-- Creator: CorelDRAW -->
<svg xmlns="http://www.w3.org/2000/svg" xml:space="preserve" width="256px" height="256px" version="1.1" shape-rendering="geometricPrecision" text-rendering="geometricPrecision" image-rendering="optimizeQuality" fill-rule="evenodd" clip-rule="evenodd"
viewBox="0 0 256 256"
 xmlns:xlink="http://www.w3.org/1999/xlink"
 xmlns:xodm="http://www.corel.com/coreldraw/odm/2003">
 <g id="Layer_x0020_1">
  <metadata id="CorelCorpID_0Corel-Layer"/>
  <path fill="#0EA5E9" d="M256 125.63l-104.42 -6.18c-8.14,-0.48 -14.55,-6.89 -15.03,-15.03l-6.18 -104.42 41.84 83.79 83.79 41.84z"/>
  <path fill="#E11D48" d="M125.63 0l-6.18 104.42c-0.48,8.14 -6.89,14.55 -15.03,15.03l-104.42 6.18 83.79 -41.84 41.84 -83.79z"/>
  <path fill="#A1A1AA" d="M256 130.37l-104.42 6.18c-8.14,0.48 -14.55,6.89 -15.03,15.03l-6.18 104.42 41.84 -83.79 83.79 -41.84z"/>
  <path fill="#A1A1AA" d="M125.63 256l-6.18 -104.42c-0.48,-8.14 -6.89,-14.55 -15.03,-15.03l-104.42 -6.18 83.79 41.84 41.84 83.79z"/>
 </g>
</svg>
