<?xml version="1.0" encoding="utf-8"?>
<!-- Generator: Adobe Illustrator 27.9.0, SVG Export Plug-In . SVG Version: 6.00 Build 0)  -->
<svg version="1.1"
	 id="Layer_1" shape-rendering="geometricPrecision" text-rendering="geometricPrecision" image-rendering="optimizeQuality" xmlns:xodm="http://www.corel.com/coreldraw/odm/2003"
	 xmlns="http://www.w3.org/2000/svg" xmlns:xlink="http://www.w3.org/1999/xlink" x="0px" y="0px" width="256px" height="256px"
	 viewBox="0 0 256 256" enable-background="new 0 0 256 256" xml:space="preserve">
<g id="Layer_x0020_1">
	<path fill-rule="evenodd" clip-rule="evenodd" fill="#FFFFFF" d="M256,125.6l-104.4-6.2c-8.1-0.5-14.6-6.9-15-15L130.4,0l41.8,83.8
		C172.2,83.8,256,125.6,256,125.6z"/>
	<path fill-rule="evenodd" clip-rule="evenodd" fill="#FFFFFF" d="M125.6,0l-6.2,104.4c-0.5,8.1-6.9,14.6-15,15L0,125.6l83.8-41.8
		C83.8,83.8,125.6,0,125.6,0z"/>
	<path fill-rule="evenodd" clip-rule="evenodd" fill="#FFFFFF" d="M256,130.4l-104.4,6.2c-8.1,0.5-14.6,6.9-15,15L130.4,256
		l41.8-83.8L256,130.4z"/>
	<path fill-rule="evenodd" clip-rule="evenodd" fill="#FFFFFF" d="M125.6,256l-6.2-104.4c-0.5-8.1-6.9-14.6-15-15L0,130.4l83.8,41.8
		C83.8,172.2,125.6,256,125.6,256z"/>
</g>
</svg>
