<?xml version="1.0" encoding="utf-8"?>
<!-- Generator: Adobe Illustrator 27.9.0, SVG Export Plug-In . SVG Version: 6.00 Build 0)  -->
<svg version="1.1" id="Layer_1" xmlns="http://www.w3.org/2000/svg" xmlns:xlink="http://www.w3.org/1999/xlink" x="0px" y="0px"
	 width="320px" height="46px" viewBox="0 0 320 46" enable-background="new 0 0 320 46" xml:space="preserve">
<g>
	<path fill="#FAFAFA" d="M41.7,40.6c0,1.2,0.2,1.8,1.8,2l3.1,0.3v2.3H29.2v-2.3l3-0.3c1.7-0.2,1.9-0.8,1.9-2V24.4H12.5v16.2
		c0,1.2,0.2,1.8,1.9,2l3,0.3v2.3H0v-2.3l3-0.3c1.7-0.2,1.9-0.8,1.9-2V5.7c0-1.2-0.2-1.9-1.9-2.1L0,3.3V1h17.4v2.3l-3,0.2
		c-1.7,0.2-1.9,0.9-1.9,2.1v14.7h21.5V5.7c0-1.2-0.2-1.9-1.9-2.1l-3-0.2V1h17.4v2.3l-3.1,0.2c-1.7,0.2-1.8,0.9-1.8,2.1V40.6z"/>
	<path fill="#FAFAFA" d="M53.4,23c0-14.1,9.2-23,22.3-23c13,0,22.2,8.8,22.2,23c0,14.1-9.2,23-22.2,23C62.6,46,53.4,37.1,53.4,23z
		 M75.6,3.8C66,3.8,61.5,11.6,61.5,23c0,11.5,4.5,19.3,14.1,19.3c9.5,0,14.1-7.8,14.1-19.3C89.7,11.6,85.2,3.8,75.6,3.8z"/>
	<path fill="#FAFAFA" d="M104.7,42.9l3-0.3c1.6-0.2,1.9-0.8,1.9-2V5.7c0-1.2-0.2-1.9-1.9-2.1l-3-0.2V1h17.4v2.3l-3,0.2
		c-1.6,0.2-1.9,0.9-1.9,2.1v35.8h11.6c6.1,0,7-0.1,7.8-5.7l0.6-4h2.7v13.5h-35.1V42.9z"/>
	<path fill="#FAFAFA" d="M161.7,45.2h-17.4v-2.3l3-0.3c1.6-0.2,1.9-0.8,1.9-2V5.7c0-1.2-0.2-1.9-1.9-2.1l-3-0.2V1h17.4v2.3l-3,0.2
		c-1.6,0.2-1.9,0.9-1.9,2.1v34.9c0,1.2,0.2,1.8,1.9,2l3,0.3V45.2z"/>
	<path fill="#FAFAFA" d="M195.5,13.4c-0.7-6.4-5.1-9.6-11.1-9.6c-4.2,0-9.7,1.8-9.7,6.6c0,4.4,3.9,6.3,8.7,7.5l4.9,1.3
		c7.8,1.9,15.7,4.8,15.7,13.6c0,8.9-9,13.2-17.9,13.2c-10.7,0-18.1-5.6-19.6-15.3h7.6c0.7,6,4,11.5,12.2,11.5c4.8,0,10.8-2.2,10.8-8
		c0-5.2-5.1-6.9-10.7-8.3l-5.6-1.5c-6.7-1.6-12.9-5.5-12.9-12.8c0-8.1,8.6-11.6,17.3-11.6c10,0,16.5,6.1,17.7,13.4H195.5z"/>
	<path fill="#FAFAFA" d="M248.4,1v13.5h-2.7l-0.5-4c-0.8-5.7-1.7-5.8-7.8-5.8h-5.6v35.8c0,1.3,0.3,1.9,2,2.1l3.7,0.3v2.4h-18.9v-2.4
		l3.7-0.3c1.6-0.2,1.9-0.8,1.9-2.1V4.7h-5.6c-5.9,0-7.1,0.2-7.8,5.8l-0.6,4h-2.7V1H248.4z"/>
	<path fill="#FAFAFA" d="M271,45.2h-17.4v-2.3l3-0.3c1.6-0.2,1.9-0.8,1.9-2V5.7c0-1.2-0.2-1.9-1.9-2.1l-3-0.2V1H271v2.3l-3,0.2
		c-1.6,0.2-1.9,0.9-1.9,2.1v34.9c0,1.2,0.2,1.8,1.9,2l3,0.3V45.2z"/>
	<path fill="#FAFAFA" d="M299.9,0c9.8,0,17.7,5,20,14.9h-7.6c-0.7-6.9-4.9-11.1-12.4-11.1c-9.5,0-14.1,7.7-14.1,19.2
		c0,11.5,4.5,19.3,14.1,19.3c7.5,0,11.7-4.2,12.5-11.2h7.6c-2.3,9.9-10.3,15-20.1,15c-13.5,0-22.2-8.9-22.2-23
		C277.7,8.8,286.4,0,299.9,0z"/>
</g>
</svg>
